<svg width="493" height="295" viewBox="0 0 493 295" fill="none" xmlns="http://www.w3.org/2000/svg">
<path d="M49.3015 23.9926L33.4326 72.1166H15.9306L0 23.9926C6.8714 23.9926 12.9571 28.446 15.1602 34.9642L24.6508 63.703L34.2183 34.9642C36.3445 28.446 42.4301 23.9926 49.3015 23.9926Z" fill="#FCE020"/>
<path d="M69.546 7.64313C69.546 11.8191 66.1411 15.2863 61.9042 15.2863C57.6674 15.2863 54.2625 11.8191 54.2625 7.64313C54.2625 3.46714 57.652 0 61.9042 0C66.1565 0 69.546 3.40551 69.546 7.64313ZM67.3582 23.9926V72.1166H56.4503V34.9642C56.4503 28.9545 61.3342 23.9926 67.3582 23.9926Z" fill="#FCE020"/>
<path d="M123.808 23.9926L107.94 72.1166H90.4375L74.507 23.9926C81.3784 23.9926 87.464 28.446 89.6672 34.9642L99.1577 63.703L108.725 34.9642C110.851 28.446 116.937 23.9926 123.808 23.9926Z" fill="#FCE020"/>
<path d="M174.943 51.3754H175.221C174.373 57.8165 170.753 63.8263 165.453 67.5862C152.557 76.9244 134.069 71.0533 128.769 56.3372C127.845 53.7176 127.352 50.9593 127.352 48.0623C127.352 41.4054 130.048 35.3957 134.439 31.081C138.753 26.6893 144.777 24.008 151.433 24.008C156.394 24.008 161.416 25.6415 165.453 28.5384C166.947 29.6017 168.288 30.8807 169.489 32.2213C172.602 35.7655 171.539 41.1434 167.44 43.3316L164.19 45.0266L141.742 56.9228C145.501 61.2375 152.65 62.5781 157.75 59.6195C158.458 59.188 159.167 58.6949 159.799 58.2018C163.835 54.0258 169.151 51.3445 174.959 51.4062M138.599 51.098L161.124 39.2018C158.643 36.5822 155.1 34.8872 151.417 34.9488C147.812 34.9488 144.484 36.4281 142.143 38.7704C139.739 41.1743 138.245 44.4257 138.245 48.0469C138.245 49.1102 138.383 50.0964 138.599 51.0826" fill="#FCE020"/>
<path d="M208.222 23.9926C209.362 23.9926 210.425 24.1313 211.55 24.27V36.7209C209.562 35.596 207.375 34.9488 204.956 34.9488C201.351 34.9488 198.007 36.4281 195.681 38.7704C193.277 41.1743 191.783 44.4257 191.783 48.0469V72.1166H180.875V23.9926C183.926 23.9926 186.606 25.2716 188.594 27.2441C190.581 29.2319 191.783 32.0518 191.783 32.0518C195.327 27.5214 200.642 24.5474 206.65 24.0543C207.144 24.0543 207.714 23.9772 208.207 23.9772" fill="#FCE020"/>
<path d="M96.4615 101.842C100.852 106.156 103.549 112.181 103.549 118.823C103.549 125.464 100.852 131.489 96.4615 135.804C92.1477 140.196 86.1236 142.877 79.4679 142.877C72.8122 142.877 66.7882 140.18 62.4743 135.804C58.9307 132.337 56.5273 127.807 55.7416 122.644L44.1249 133.123L37.0378 139.564C33.4326 141.691 29.242 142.893 24.7894 142.893C18.1337 142.893 12.1097 140.196 7.79581 135.82C3.40489 131.505 0.70871 125.48 0.70871 118.838C0.70871 112.197 3.40489 106.172 7.79581 101.857C12.1097 97.4653 18.1337 94.784 24.7894 94.784C35.343 94.784 44.2635 101.58 47.5298 110.995C44.4792 113.83 39.811 114.108 36.4831 111.627C35.6358 111.056 34.85 110.348 34.0797 109.577C31.7379 107.235 28.41 105.756 24.8048 105.756C21.1997 105.756 17.8564 107.235 15.53 109.577C13.1265 111.981 11.6321 115.232 11.6321 118.854C11.7091 126.065 17.5791 132.013 24.8048 132.013C28.41 132.013 31.7533 130.534 34.0797 128.115L35.2814 126.99L62.274 102.011C66.6649 97.5577 72.7506 94.7994 79.4833 94.7994C86.2161 94.7994 92.1631 97.4961 96.477 101.872M92.6407 118.823C92.6407 115.217 91.1462 111.966 88.7428 109.546C86.4009 107.204 83.0731 105.725 79.4679 105.725C76.4944 105.725 73.7982 106.711 71.6105 108.344C71.1175 108.699 70.6245 109.13 70.1931 109.546C70.0544 109.685 69.9774 109.762 69.8387 109.901C67.7126 112.243 66.3722 115.417 66.3722 118.823C66.3722 122.429 67.8667 125.757 70.1931 128.099C72.5965 130.503 75.8627 131.998 79.4679 131.998C86.6937 131.921 92.5636 126.05 92.6407 118.838" fill="#FCE020"/>
<path d="M177.07 114.431V142.877H166.085V114.57C166.085 109.762 162.264 105.725 157.441 105.725C156.594 105.725 155.808 105.802 155.038 106.002C151.356 106.988 148.598 110.394 148.598 114.431V142.877H137.69V114.431C137.69 110.332 134.793 106.865 130.896 105.94C130.264 105.802 129.617 105.725 128.985 105.725C124.101 105.648 120.126 109.685 120.126 114.57V142.877H109.218V94.7532C112.269 94.7532 114.95 96.0322 116.937 98.0046C117.076 98.0816 117.291 98.282 117.43 98.4361C118.57 99.7767 120.188 102.689 120.188 102.828C120.897 101.842 121.682 100.994 122.591 100.208C127.552 95.6777 134.84 95.1076 140.294 98.5747C141.218 99.1449 142.065 99.7767 142.913 100.624C142.99 100.701 143.052 100.763 143.129 100.84C144.269 99.638 145.609 98.4977 147.088 97.6502C147.581 97.3728 148.074 97.08 148.567 96.8026C151.186 95.5236 154.16 94.7532 157.349 94.7532C161.601 94.7532 165.561 96.1708 168.827 98.4977C173.788 102.042 177.039 107.836 177.039 114.416" fill="#FCE020"/>
<path d="M48.3001 192.927H48.5774C47.7301 199.368 44.1095 205.378 38.8096 209.138C25.9141 218.476 7.42604 212.605 2.12613 197.889C1.20173 195.27 0.70871 192.511 0.70871 189.614C0.70871 182.957 3.40489 176.948 7.79581 172.633C12.1097 168.241 18.1337 165.56 24.7894 165.56C29.7504 165.56 34.773 167.193 38.8096 170.09C40.304 171.154 41.6444 172.433 42.8461 173.773C45.9583 177.317 44.8952 182.695 40.797 184.884L37.5462 186.579L15.0986 198.475C18.8578 202.789 26.0066 204.13 31.1062 201.171C31.8149 200.74 32.5236 200.247 33.1553 199.754C37.1919 195.578 42.5072 192.896 48.3155 192.958M11.971 192.635L34.4957 180.738C32.0152 178.119 28.4716 176.424 24.7894 176.485C21.1843 176.485 17.841 177.965 15.5146 180.307C13.1111 182.711 11.6167 185.962 11.6167 189.583C11.6167 190.647 11.7553 191.633 11.971 192.619" fill="#FCE020"/>
<path d="M93.9194 172.618C98.3104 176.932 101.007 182.957 101.007 189.599V213.669H90.0215V189.599C90.0215 185.993 88.5271 182.742 86.2007 180.322C83.7972 177.98 80.531 176.501 76.9258 176.501C73.3206 176.501 69.9928 177.98 67.651 180.322C65.2475 182.726 63.7531 185.978 63.7531 189.599V213.669H52.8451V189.599C52.8451 176.3 63.6144 165.529 76.9258 165.529C83.5815 165.529 89.6056 168.226 93.9194 172.602" fill="#FCE020"/>
<path d="M132.929 202.759V213.653H130.726C117.476 213.653 106.645 202.897 106.645 189.583V156.823L117.553 150.243V165.529H130.726V176.501H117.553V187.395C117.553 196.733 123.639 203.606 132.929 202.759Z" fill="#FCE020"/>
<path d="M175.005 165.529H185.99V189.599C185.99 198.305 181.599 205.871 175.005 210.124C171.677 212.251 167.718 213.591 163.527 213.669C150.709 213.391 140.371 203.051 140.016 190.246V165.545H150.924V189.614C150.924 193.22 152.419 196.549 154.822 198.891C154.822 198.891 154.848 198.916 154.899 198.968C159.29 203.36 166.439 203.421 170.984 199.184C173.464 196.78 175.02 193.374 175.02 189.63V165.56L175.005 165.529Z" fill="#FCE020"/>
<path d="M236.771 183.019L236.632 184.144H235.076C229.976 184.144 225.231 181.956 223.105 178.489C222.673 177.78 222.119 177.21 221.472 176.716C219.777 175.437 217.435 174.729 214.955 174.729C212.474 174.729 210.132 175.437 208.361 176.716L208.284 176.794C205.741 178.704 205.741 181.755 208.284 183.666H208.361C210.132 185.007 212.474 185.716 214.955 185.716C219.207 185.716 223.305 186.563 226.849 188.258C227.48 188.613 228.189 188.967 228.836 189.321C229.329 189.676 229.899 190.03 230.392 190.385L230.469 190.462C233.797 192.943 235.646 196.194 235.646 199.661C235.646 203.128 233.797 206.457 230.469 208.938L230.392 209.015C229.329 209.801 228.127 210.494 226.849 211.064C223.305 212.759 219.207 213.684 214.955 213.684C204.678 213.684 199.301 209.431 196.544 205.902C193.709 202.158 193.077 198.336 193.077 197.689V196.41H194.772C199.949 196.41 204.755 198.321 207.59 201.572C209.285 203.483 211.766 204.469 214.955 204.469C217.435 204.469 219.777 203.76 221.472 202.481H221.549C223.321 201.141 223.598 199.153 222.257 197.596C221.903 197.18 221.626 196.965 221.472 196.888C219.777 195.609 217.435 194.9 214.955 194.9C210.702 194.9 206.527 193.975 202.984 192.28C202.352 191.926 201.643 191.571 201.073 191.217C200.996 191.217 200.935 191.14 200.935 191.14C196.467 188.443 193.925 184.421 193.925 180.245C193.925 176.069 196.467 171.97 200.935 169.274C201.566 168.842 202.275 168.488 202.984 168.133C206.527 166.438 210.702 165.514 214.955 165.514C219.207 165.514 223.305 166.438 226.849 168.133C228.127 168.704 229.329 169.412 230.392 170.26C237.68 175.561 236.832 182.711 236.771 183.004" fill="#FCE020"/>
<path d="M259.218 149.18C259.218 153.356 255.813 156.823 251.577 156.823C247.34 156.823 243.935 153.356 243.935 149.18C243.935 145.004 247.34 141.536 251.577 141.536C255.813 141.536 259.218 144.942 259.218 149.18ZM257.015 165.529V213.653H246.107V176.501C246.107 170.491 250.991 165.529 257.015 165.529Z" fill="#FCE020"/>
<path d="M305.608 168.796C307.595 166.808 310.353 165.545 313.404 165.545V213.669C309.506 213.669 306.039 211.619 304.129 208.568C303.497 207.582 302.989 206.441 302.711 205.24C299.245 209.986 293.791 213.16 287.628 213.591C287.058 213.669 286.565 213.669 285.995 213.669C280.264 213.669 275.087 211.326 271.328 207.582C267.569 203.837 265.242 198.66 265.242 192.927V186.347C265.242 174.883 274.517 165.545 285.995 165.545C286.565 165.545 287.058 165.622 287.628 165.622C293.652 166.115 298.968 169.089 302.434 173.619C302.434 173.619 303.636 170.784 305.623 168.811M302.419 189.599C302.419 185.993 300.924 182.742 298.598 180.322C296.194 177.98 292.928 176.501 289.323 176.501C285.718 176.501 282.39 177.98 280.048 180.322C277.645 182.726 276.15 185.978 276.15 189.599C276.15 196.888 282.036 202.759 289.323 202.759C292.928 202.759 296.194 201.264 298.598 198.86C300.94 196.533 302.419 193.205 302.419 189.583" fill="#FCE020"/>
<path d="M364.169 183.019L364.03 184.144H362.474C357.375 184.144 352.629 181.956 350.503 178.489C350.072 177.78 349.517 177.21 348.87 176.716C347.175 175.437 344.833 174.729 342.353 174.729C339.873 174.729 337.531 175.437 335.759 176.716L335.682 176.794C333.14 178.704 333.14 181.755 335.682 183.666H335.759C337.531 185.007 339.873 185.716 342.353 185.716C346.605 185.716 350.703 186.563 354.247 188.258C354.879 188.613 355.587 188.967 356.234 189.321C356.727 189.676 357.298 190.03 357.791 190.385L357.868 190.462C361.195 192.943 363.044 196.194 363.044 199.661C363.044 203.128 361.195 206.457 357.868 208.938L357.791 209.015C356.727 209.801 355.526 210.494 354.247 211.064C350.703 212.759 346.605 213.684 342.353 213.684C332.077 213.684 326.7 209.431 323.942 205.902C321.107 202.158 320.475 198.336 320.475 197.689V196.41H322.17C327.347 196.41 332.154 198.321 334.989 201.572C336.683 203.483 339.164 204.469 342.353 204.469C344.833 204.469 347.175 203.76 348.87 202.481H348.947C350.719 201.141 350.996 199.153 349.656 197.596C349.301 197.18 349.024 196.965 348.87 196.888C347.175 195.609 344.833 194.9 342.353 194.9C338.101 194.9 333.926 193.975 330.382 192.28C329.75 191.926 329.042 191.571 328.472 191.217C328.394 191.217 328.333 191.14 328.333 191.14C323.865 188.443 321.323 184.421 321.323 180.245C321.323 176.069 323.865 171.97 328.333 169.274C328.965 168.842 329.673 168.488 330.382 168.133C333.926 166.438 338.101 165.514 342.353 165.514C346.605 165.514 350.703 166.438 354.247 168.133C355.526 168.704 356.727 169.412 357.791 170.26C365.078 175.561 364.231 182.711 364.169 183.004" fill="#FCE020"/>
<path d="M439.184 185.207V213.653H428.199V185.346C428.199 180.538 424.378 176.501 419.556 176.501C418.709 176.501 417.923 176.578 417.153 176.778C413.47 177.764 410.713 181.17 410.713 185.207V213.653H399.805V185.207C399.805 181.108 396.908 177.641 393.01 176.716C392.379 176.578 391.732 176.501 391.1 176.501C386.216 176.424 382.241 180.461 382.241 185.346V213.653H371.333V165.529C374.384 165.529 377.064 166.808 379.052 168.781C379.19 168.858 379.406 169.058 379.545 169.212C380.685 170.553 382.303 173.465 382.303 173.604C383.011 172.618 383.797 171.77 384.706 170.984C389.667 166.454 396.954 165.884 402.408 169.351C403.333 169.921 404.18 170.553 405.028 171.4C405.105 171.477 405.166 171.539 405.243 171.616C406.383 170.414 407.724 169.274 409.203 168.426C409.696 168.149 410.189 167.856 410.682 167.579C413.301 166.3 416.275 165.529 419.464 165.529C423.716 165.529 427.675 166.947 430.942 169.274C435.903 172.818 439.154 178.612 439.154 185.192" fill="#FCE020"/>
<path d="M493 189.599C493 202.897 482.231 213.669 468.919 213.669C455.608 213.669 444.839 202.913 444.839 189.599C444.839 176.285 455.608 165.545 468.919 165.545C482.231 165.545 493 176.3 493 189.599ZM468.919 176.501C461.632 176.501 455.747 182.372 455.747 189.599C455.747 196.826 461.632 202.759 468.919 202.759C476.207 202.759 482.015 196.888 482.015 189.599C482.015 182.31 476.13 176.501 468.919 176.501Z" fill="#FCE020"/>
<path d="M27.085 263.364L16.3619 288.127H10.6923L0 263.364H6.19351L13.7428 281.054L21.3845 263.364H27.085Z" fill="#FCE020"/>
<path d="M34.6343 273.519H29.1033V288.127H34.6343V273.519Z" fill="#FCE020"/>
<path d="M43.5086 287.157C41.8909 286.324 40.6276 285.153 39.7186 283.674C38.8096 282.195 38.3628 280.5 38.3628 278.62C38.3628 276.74 38.8096 275.045 39.7186 273.565C40.6276 272.071 41.8909 270.915 43.5086 270.083C45.1263 269.251 46.9443 268.819 48.978 268.819C51.0117 268.819 52.7372 269.235 54.2317 270.083C55.7262 270.915 56.82 272.117 57.5133 273.673L53.2303 275.969C52.2442 274.228 50.8114 273.35 48.9472 273.35C47.5144 273.35 46.3126 273.827 45.3728 274.767C44.433 275.707 43.9554 277.002 43.9554 278.62C43.9554 280.238 44.433 281.532 45.3728 282.472C46.3126 283.412 47.5144 283.89 48.9472 283.89C50.8422 283.89 52.2596 283.011 53.2303 281.27L57.5133 283.612C56.8354 285.123 55.7416 286.309 54.2317 287.157C52.7372 288.004 50.9809 288.436 48.978 288.436C46.9751 288.436 45.1263 288.019 43.5086 287.172" fill="#FCE020"/>
<path d="M73.2744 287.203C72.7352 287.603 72.0727 287.912 71.2715 288.112C70.4858 288.312 69.6538 288.405 68.7757 288.405C66.5109 288.405 64.7545 287.835 63.522 286.663C62.2894 285.508 61.6577 283.813 61.6577 281.563V273.735H58.7151V269.482H61.6577V264.844H67.1888V269.482H71.934V273.735H67.1888V281.486C67.1888 282.287 67.389 282.904 67.805 283.35C68.221 283.782 68.8065 283.998 69.5614 283.998C70.4396 283.998 71.1791 283.766 71.7954 283.289L73.2898 287.187L73.2744 287.203Z" fill="#FCE020"/>
<path d="M79.4525 287.157C77.8656 286.324 76.6177 285.153 75.7241 283.674C74.8305 282.195 74.3837 280.5 74.3837 278.62C74.3837 276.74 74.8305 275.045 75.7241 273.565C76.6177 272.086 77.8656 270.915 79.4525 270.083C81.0394 269.251 82.842 268.819 84.8603 268.819C86.8786 268.819 88.6657 269.235 90.2372 270.083C91.8241 270.915 93.0567 272.086 93.9502 273.565C94.8438 275.045 95.2906 276.74 95.2906 278.62C95.2906 280.5 94.8438 282.195 93.9502 283.674C93.0567 285.153 91.8087 286.324 90.2372 287.157C88.6503 287.989 86.8632 288.42 84.8603 288.42C82.8574 288.42 81.0548 288.004 79.4525 287.157ZM88.3422 282.457C89.2512 281.501 89.698 280.222 89.698 278.62C89.698 277.017 89.2358 275.738 88.3422 274.783C87.4332 273.827 86.2777 273.35 84.8603 273.35C83.4429 273.35 82.2719 273.827 81.3475 274.783C80.4231 275.738 79.9609 277.017 79.9609 278.62C79.9609 280.222 80.4231 281.501 81.3475 282.457C82.2719 283.412 83.4429 283.89 84.8603 283.89C86.2777 283.89 87.4332 283.412 88.3422 282.457Z" fill="#FCE020"/>
<path d="M106.923 269.513C108.047 269.035 109.342 268.804 110.805 268.804V273.904C110.189 273.858 109.773 273.827 109.557 273.827C107.97 273.827 106.738 274.274 105.844 275.153C104.951 276.031 104.504 277.371 104.504 279.128V288.112H98.9728V269.081H104.242V271.593C104.904 270.668 105.798 269.975 106.923 269.513Z" fill="#FCE020"/>
<path d="M133.684 278.404L130.356 281.871V288.127H124.656V263.364H130.356V274.937L141.326 263.364H147.704L137.428 274.397L148.305 288.127H141.619L133.684 278.404Z" fill="#FCE020"/>
<path d="M164.76 270.006C165.468 270.006 166.054 269.775 166.531 269.312C167.009 268.85 167.24 268.264 167.24 267.556C167.24 266.847 167.009 266.261 166.531 265.799C166.054 265.337 165.468 265.105 164.76 265.105C164.051 265.105 163.465 265.337 163.003 265.799C162.541 266.261 162.31 266.847 162.31 267.556C162.31 268.264 162.541 268.85 163.003 269.312C163.465 269.775 164.051 270.006 164.76 270.006Z" fill="#FCE020"/>
<path d="M154.052 270.006C154.761 270.006 155.346 269.775 155.808 269.312C156.27 268.85 156.502 268.264 156.502 267.556C156.502 266.847 156.27 266.261 155.808 265.799C155.346 265.337 154.761 265.105 154.052 265.105C153.343 265.105 152.758 265.337 152.28 265.799C151.803 266.261 151.571 266.847 151.571 267.556C151.571 268.264 151.803 268.85 152.28 269.312C152.758 269.775 153.343 270.006 154.052 270.006Z" fill="#FCE020"/>
<path d="M163.881 273.735V278.743C163.881 280.438 163.481 281.717 162.68 282.564C161.925 283.366 160.954 283.782 159.752 283.828C158.551 283.766 157.58 283.366 156.825 282.564C156.024 281.702 155.623 280.438 155.623 278.743V273.735H150.092V280.068C150.092 282.904 150.832 285.03 152.296 286.479C153.759 287.912 155.747 288.636 158.243 288.636H161.247C163.743 288.636 165.73 287.912 167.194 286.479C168.657 285.045 169.397 282.904 169.397 280.068V273.735H163.866H163.881Z" fill="#FCE020"/>
<path d="M31.8919 270.006C32.6006 270.006 33.1861 269.775 33.6483 269.312C34.1105 268.85 34.3416 268.264 34.3416 267.556C34.3416 266.847 34.1105 266.261 33.6483 265.799C33.1861 265.337 32.6006 265.105 31.8919 265.105C31.1832 265.105 30.5978 265.337 30.1202 265.799C29.6426 266.261 29.4115 266.847 29.4115 267.556C29.4115 268.264 29.6426 268.85 30.1202 269.312C30.5978 269.775 31.1832 270.006 31.8919 270.006Z" fill="#FCE020"/>
<path d="M190.289 270.037C191.737 270.853 192.877 271.994 193.709 273.473C194.541 274.952 194.941 276.663 194.941 278.62C194.941 280.577 194.525 282.287 193.709 283.766C192.892 285.246 191.737 286.386 190.289 287.203C188.84 288.019 187.223 288.42 185.451 288.42C183.017 288.42 181.106 287.65 179.72 286.124V295H174.189V269.097H179.458V271.285C180.829 269.636 182.816 268.804 185.435 268.804C187.207 268.804 188.809 269.204 190.273 270.021M187.978 282.457C188.887 281.501 189.333 280.222 189.333 278.62C189.333 277.017 188.871 275.738 187.978 274.783C187.069 273.827 185.913 273.35 184.496 273.35C183.078 273.35 181.923 273.827 181.014 274.783C180.105 275.738 179.658 277.017 179.658 278.62C179.658 280.222 180.105 281.501 181.014 282.457C181.923 283.412 183.078 283.89 184.496 283.89C185.913 283.89 187.069 283.412 187.978 282.457Z" fill="#FCE020"/>
<path d="M214.724 270.037C216.172 270.853 217.312 271.994 218.144 273.473C218.976 274.952 219.376 276.663 219.376 278.62C219.376 280.577 218.96 282.287 218.144 283.766C217.312 285.246 216.172 286.386 214.724 287.203C213.275 288.019 211.658 288.42 209.886 288.42C207.452 288.42 205.541 287.65 204.155 286.124V295H198.624V269.097H203.893V271.285C205.264 269.636 207.251 268.804 209.871 268.804C211.642 268.804 213.26 269.204 214.708 270.021M212.413 282.457C213.322 281.501 213.768 280.222 213.768 278.62C213.768 277.017 213.306 275.738 212.413 274.783C211.504 273.827 210.348 273.35 208.931 273.35C207.513 273.35 206.358 273.827 205.449 274.783C204.54 275.738 204.093 277.017 204.093 278.62C204.093 280.222 204.54 281.501 205.449 282.457C206.358 283.412 207.513 283.89 208.931 283.89C210.348 283.89 211.504 283.412 212.413 282.457Z" fill="#FCE020"/>
<path d="M241.608 280.161H227.188C227.45 281.347 228.066 282.272 229.036 282.95C230.007 283.628 231.209 283.982 232.642 283.982C233.628 283.982 234.506 283.828 235.276 283.535C236.047 283.243 236.755 282.78 237.418 282.133L240.36 285.323C238.573 287.372 235.939 288.405 232.503 288.405C230.361 288.405 228.451 287.989 226.803 287.141C225.154 286.309 223.875 285.138 222.982 283.659C222.088 282.179 221.641 280.484 221.641 278.604C221.641 276.724 222.088 275.06 222.966 273.565C223.844 272.071 225.062 270.899 226.618 270.067C228.158 269.235 229.899 268.804 231.81 268.804C233.72 268.804 235.369 269.204 236.878 270.006C238.388 270.807 239.575 271.963 240.437 273.457C241.3 274.952 241.732 276.693 241.732 278.681C241.732 278.758 241.701 279.251 241.624 280.161M228.682 274.043C227.835 274.752 227.311 275.723 227.126 276.94H236.509C236.324 275.738 235.8 274.783 234.953 274.058C234.105 273.334 233.058 272.98 231.84 272.98C230.623 272.98 229.545 273.334 228.682 274.043Z" fill="#FCE020"/>
<path d="M253.348 269.513C254.473 269.035 255.767 268.804 257.231 268.804V273.904C256.615 273.858 256.199 273.827 255.983 273.827C254.396 273.827 253.163 274.274 252.27 275.153C251.376 276.031 250.929 277.371 250.929 279.128V288.112H245.398V269.081H250.668V271.593C251.33 270.668 252.224 269.975 253.348 269.513Z" fill="#FCE020"/>
<path d="M262.361 287.835C260.851 287.449 259.65 286.956 258.756 286.371L260.605 282.41C261.452 282.95 262.484 283.397 263.686 283.736C264.888 284.075 266.074 284.244 267.23 284.244C269.572 284.244 270.743 283.674 270.743 282.503C270.743 281.964 270.419 281.578 269.787 281.332C269.156 281.101 268.17 280.9 266.845 280.731C265.289 280.5 263.994 280.222 262.978 279.914C261.961 279.606 261.082 279.067 260.343 278.281C259.603 277.495 259.234 276.401 259.234 274.952C259.234 273.75 259.588 272.687 260.281 271.747C260.975 270.822 261.991 270.083 263.332 269.574C264.657 269.05 266.244 268.788 268.062 268.788C269.402 268.788 270.743 268.942 272.083 269.235C273.423 269.528 274.517 269.944 275.395 270.453L273.562 274.382C271.883 273.442 270.049 272.964 268.077 272.964C266.891 272.964 266.013 273.134 265.427 273.457C264.842 273.781 264.549 274.213 264.549 274.736C264.549 275.322 264.873 275.738 265.504 275.969C266.136 276.2 267.153 276.432 268.555 276.647C270.111 276.909 271.39 277.187 272.376 277.479C273.362 277.772 274.224 278.311 274.964 279.082C275.688 279.868 276.058 280.947 276.058 282.333C276.058 283.52 275.703 284.568 274.995 285.477C274.286 286.401 273.254 287.11 271.898 287.619C270.542 288.127 268.925 288.374 267.06 288.374C265.473 288.374 263.933 288.174 262.423 287.788" fill="#FCE020"/>
</svg>
