<svg width="109" height="72" viewBox="0 0 109 72" fill="none" xmlns="http://www.w3.org/2000/svg">
<g clip-path="url(#clip0_27_3388)">
<path d="M29.0424 32.7235V51.3908H23.2325V33.329C23.2325 32.9706 22.8375 32.7583 22.4076 32.7583C21.9776 32.7583 21.6175 32.974 21.5127 33.329L17.2094 51.3908H11.8295L7.49132 33.329C7.41791 32.9706 7.02639 32.7583 6.59642 32.7583C6.20141 32.7583 5.80639 32.974 5.80639 33.329V51.3908H0V32.7235C0 29.5461 2.97486 27.298 6.52651 27.298C10.0782 27.298 12.5846 29.2608 13.1963 32.2223L14.5247 38.5039L15.8146 32.2223C16.4229 29.2608 19.1495 27.298 22.5194 27.298C25.8893 27.298 29.0459 29.5461 29.0459 32.7235H29.0424Z" fill="#333333"/>
<path d="M32.5208 27.6564H38.3306V51.3943H32.5208V27.6564Z" fill="#333333"/>
<path d="M52.9951 46.8597L49.4819 33.3325C49.3736 32.974 49.017 32.7617 48.587 32.7617C48.1571 32.7617 47.762 32.9775 47.762 33.3325V51.3943H41.9521V32.7269C41.9521 29.5496 44.9655 27.3015 48.4787 27.3015C51.9918 27.3015 54.3585 29.299 55.1834 32.2258L58.6966 45.753C58.7666 46.0732 59.0567 46.2889 59.5216 46.2889C59.9516 46.2889 60.2383 46.0732 60.2383 45.753V27.6564H66.0481V46.3968C66.0481 49.5742 63.0733 51.7527 59.595 51.7527C56.3335 51.7527 53.8236 49.8595 52.9986 46.8632L52.9951 46.8597Z" fill="#333333"/>
<path d="M90.0323 39.5062C90.0323 46.0732 84.4392 51.3943 77.4827 51.3943H69.6663V27.6564H77.4827C84.4392 27.6564 90.0323 32.974 90.0323 39.5062ZM84.2259 39.5062C84.2259 35.6154 81.2126 32.4729 77.4862 32.4729H75.4796V46.5743H77.4862C81.2161 46.5743 84.2259 43.4318 84.2259 39.5062Z" fill="#333333"/>
<path d="M91.6821 45.3597L96.9187 43.7519C97.4221 45.3945 98.7819 46.4664 100.397 46.4664C102.012 46.4664 103.05 45.5372 103.05 44.3261C103.05 43.042 101.83 42.2903 99.3937 41.6499C94.8388 40.4354 91.8989 38.1872 91.8989 34.547C91.8989 30.5484 95.5903 27.3362 100.254 27.3362C104.379 27.3362 107.748 29.8698 108.535 33.3673L103.337 34.9751C102.69 33.4056 101.474 32.4033 99.967 32.4033C98.7854 32.4033 97.8521 33.1898 97.8521 34.1886C97.8521 35.3649 98.712 36.0435 100.9 36.6177C106.137 37.9749 109.003 40.2231 109.003 44.0408C109.003 48.3944 105.382 51.7144 100.54 51.7144C95.9504 51.7144 92.3638 48.9303 91.6856 45.3597H91.6821Z" fill="#333333"/>
<path d="M0 0.316681H5.17017V21.4479H0V0.316681Z" fill="#333333"/>
<path d="M29.9724 10.8684C29.9724 4.86171 35.1111 0 41.4628 0C47.8146 0 52.9533 4.86171 52.9533 10.8684C52.9533 16.8751 47.8146 21.7681 41.4628 21.7681C35.1111 21.7681 29.9724 16.9064 29.9724 10.8684ZM47.7481 10.8684C47.7481 7.53096 44.9376 4.83039 41.4593 4.83039C37.9811 4.83039 35.1705 7.53096 35.1705 10.8684C35.1705 14.2058 37.9811 16.9377 41.4593 16.9377C44.9376 16.9377 47.7481 14.2371 47.7481 10.8684Z" fill="#333333"/>
<path d="M65.1146 17.4145L61.986 5.36981C61.8916 5.05312 61.57 4.86171 61.1889 4.86171C60.8079 4.86171 60.4548 5.05312 60.4548 5.36981V21.4479H55.2847V4.83039C55.2847 2.00106 57.9659 0 61.0946 0C64.2232 0 66.3276 1.77834 67.0617 4.38494L70.1904 16.4296C70.2533 16.715 70.5085 16.9064 70.9245 16.9064C71.309 16.9064 71.5642 16.715 71.5642 16.4296V0.31669H76.7344V17.0003C76.7344 19.8297 74.0846 21.7681 70.9874 21.7681C68.0825 21.7681 65.8487 20.0837 65.1146 17.4145Z" fill="#333333"/>
<path d="M79.9541 0.316681H85.1243V21.4479H79.9541V0.316681Z" fill="#333333"/>
<path d="M105.361 14.4913L104.372 14.0145C104.211 14.2685 104.022 14.5226 103.83 14.7453L103.767 14.808C103.529 15.0759 103.274 15.3195 103.001 15.5388C102.952 15.5805 102.9 15.6153 102.848 15.6536C102.746 15.7302 102.641 15.8068 102.533 15.8798C102.495 15.9042 102.46 15.9286 102.421 15.9529C102.358 15.9947 102.299 16.0364 102.232 16.0747L102.169 16.106C102.141 16.12 102.113 16.1339 102.086 16.1478C101.166 16.6594 100.1 16.9552 98.9638 16.9552C97.1041 16.9552 95.4366 16.1687 94.2866 14.9263C94.2761 14.9158 94.2656 14.9054 94.2551 14.895L94.1922 14.8323C94.1922 14.8323 94.1712 14.8045 94.1607 14.7906C93.2378 13.7326 92.6785 12.3684 92.6785 10.8789C92.6785 10.1411 92.8218 9.44163 93.07 8.78737C93.084 8.74561 93.1015 8.70385 93.1155 8.66557C93.1609 8.55421 93.2099 8.44284 93.2623 8.33496C93.2973 8.26188 93.3322 8.19227 93.3707 8.11919C93.4126 8.03567 93.4581 7.95563 93.507 7.87558C93.5629 7.77814 93.6259 7.6807 93.6888 7.58674C93.7237 7.53453 93.7587 7.48233 93.7937 7.43013C93.888 7.29789 93.9894 7.16912 94.0908 7.04384C94.1013 7.02992 94.1118 7.01948 94.1223 7.00556C94.1467 6.97772 94.1677 6.94639 94.1922 6.91855L94.2551 6.85591C94.2901 6.81763 94.3285 6.78283 94.367 6.74455C95.5136 5.55435 97.1461 4.80613 98.9638 4.80613C99.5127 4.80613 100.044 4.88269 100.554 5.01145C100.561 5.01145 100.568 5.01145 100.575 5.01493C100.991 5.12282 101.39 5.26898 101.767 5.44995C101.788 5.46039 101.809 5.46735 101.83 5.47779C101.893 5.50911 101.956 5.54043 102.019 5.57175C102.068 5.59611 102.12 5.62047 102.169 5.64831L102.232 5.67963C102.806 6.02765 103.316 6.44178 103.763 6.94987L103.826 7.01252C104.019 7.23524 104.211 7.48929 104.368 7.74334L105.358 7.26656L105.42 7.23524L108.997 5.51955C108.102 4.0579 106.889 2.81898 105.42 1.86543L105.358 1.83411C103.54 0.657836 101.337 -0.0103455 98.9743 -0.0103455C96.6112 -0.0103455 94.4753 0.657836 92.6541 1.76799L92.5911 1.83063C89.4939 3.76905 87.4839 7.07516 87.4839 10.8546C87.4839 14.634 89.4939 17.9714 92.5911 19.9098C92.5911 19.9098 93.6433 20.5467 94.1887 20.7694L94.2516 20.8007C94.7305 21.0234 95.8491 21.3401 95.8491 21.3401C96.8384 21.6255 97.8906 21.7543 98.9778 21.7543C100.065 21.7543 101.149 21.5942 102.169 21.3401C102.169 21.3401 103.288 20.9921 103.767 20.7694L103.83 20.7381C104.372 20.5153 104.882 20.23 105.361 19.9133L105.424 19.882C106.892 18.9284 108.105 17.6895 109 16.2278L105.424 14.5122L105.361 14.4808V14.4913Z" fill="#333333"/>
<path d="M105.361 14.4913L104.372 14.0145C104.211 14.2685 104.022 14.5226 103.83 14.7453L103.767 14.808C103.529 15.0759 103.274 15.3195 103.001 15.5388C102.952 15.5805 102.9 15.6153 102.848 15.6536C102.746 15.7302 102.641 15.8068 102.533 15.8798C102.495 15.9042 102.46 15.9286 102.421 15.9529C102.358 15.9947 102.299 16.0364 102.232 16.0747L102.169 16.106C102.141 16.12 102.113 16.1339 102.086 16.1478C101.166 16.6594 100.1 16.9552 98.9638 16.9552C97.1041 16.9552 95.4366 16.1687 94.2866 14.9263C94.2761 14.9158 94.2656 14.9054 94.2551 14.895L94.1922 14.8323C94.1922 14.8323 94.1712 14.8045 94.1607 14.7906C93.2378 13.7326 92.6785 12.3684 92.6785 10.8789C92.6785 10.1411 92.8218 9.44163 93.07 8.78737C93.084 8.74561 93.1015 8.70385 93.1155 8.66557C93.1609 8.55421 93.2099 8.44284 93.2623 8.33496C93.2973 8.26188 93.3322 8.19227 93.3707 8.11919C93.4126 8.03567 93.4581 7.95563 93.507 7.87558C93.5629 7.77814 93.6259 7.6807 93.6888 7.58674C93.7237 7.53453 93.7587 7.48233 93.7937 7.43013C93.888 7.29789 93.9894 7.16912 94.0908 7.04384C94.1013 7.02992 94.1118 7.01948 94.1223 7.00556C94.1467 6.97772 94.1677 6.94639 94.1922 6.91855L94.2551 6.85591C94.2901 6.81763 94.3285 6.78283 94.367 6.74455C95.5136 5.55435 97.1461 4.80613 98.9638 4.80613C99.5127 4.80613 100.044 4.88269 100.554 5.01145C100.561 5.01145 100.568 5.01145 100.575 5.01493C100.991 5.12282 101.39 5.26898 101.767 5.44995C101.788 5.46039 101.809 5.46735 101.83 5.47779C101.893 5.50911 101.956 5.54043 102.019 5.57175C102.068 5.59611 102.12 5.62047 102.169 5.64831L102.232 5.67963C102.806 6.02765 103.316 6.44178 103.763 6.94987L103.826 7.01252C104.019 7.23524 104.211 7.48929 104.368 7.74334L105.358 7.26656L105.42 7.23524L108.997 5.51955C108.102 4.0579 106.889 2.81898 105.42 1.86543L105.358 1.83411C103.54 0.657836 101.337 -0.0103455 98.9743 -0.0103455C96.6112 -0.0103455 94.4753 0.657836 92.6541 1.76799L92.5911 1.83063C89.4939 3.76905 87.4839 7.07516 87.4839 10.8546C87.4839 14.634 89.4939 17.9714 92.5911 19.9098C92.5911 19.9098 93.6433 20.5467 94.1887 20.7694L94.2516 20.8007C94.7305 21.0234 95.8491 21.3401 95.8491 21.3401C96.8384 21.6255 97.8906 21.7543 98.9778 21.7543C100.065 21.7543 101.149 21.5942 102.169 21.3401C102.169 21.3401 103.288 20.9921 103.767 20.7694L103.83 20.7381C104.372 20.5153 104.882 20.23 105.361 19.9133L105.424 19.882C106.892 18.9284 108.105 17.6895 109 16.2278L105.424 14.5122L105.361 14.4808V14.4913Z" fill="#333333"/>
<path d="M25.4069 14.4913L24.4176 14.0145C24.2568 14.2685 24.068 14.5226 23.8758 14.7453L23.8128 14.808C23.5751 15.0759 23.3199 15.3195 23.0473 15.5388C22.9983 15.5805 22.9459 15.6153 22.8935 15.6536C22.7921 15.7302 22.6872 15.8068 22.5789 15.8798C22.5404 15.9042 22.5054 15.9286 22.467 15.9529C22.4041 15.9947 22.3446 16.0364 22.2782 16.0747L22.2153 16.106C22.1873 16.12 22.1594 16.1339 22.1314 16.1478C21.212 16.6594 20.1458 16.9552 19.0097 16.9552C17.15 16.9552 15.4825 16.1687 14.3325 14.9263C14.322 14.9158 14.3115 14.9054 14.301 14.895L14.2381 14.8323C14.2381 14.8323 14.2171 14.8045 14.2066 14.7906C13.2837 13.7326 12.7244 12.3684 12.7244 10.8789C12.7244 10.1411 12.8677 9.44163 13.1159 8.78737C13.1299 8.74561 13.1474 8.70385 13.1614 8.66557C13.2068 8.55421 13.2558 8.44284 13.3082 8.33496C13.3432 8.26188 13.3781 8.19227 13.4166 8.11919C13.4585 8.03567 13.504 7.95563 13.5529 7.87558C13.6088 7.77814 13.6718 7.6807 13.7347 7.58674C13.7696 7.53453 13.8046 7.48233 13.8396 7.43013C13.9339 7.29789 14.0353 7.16912 14.1367 7.04384C14.1472 7.02992 14.1577 7.01948 14.1682 7.00556C14.1926 6.97772 14.2136 6.94639 14.2381 6.91855L14.301 6.85591C14.3359 6.81763 14.3744 6.78283 14.4129 6.74455C15.5595 5.55435 17.192 4.80613 19.0097 4.80613C19.5586 4.80613 20.0899 4.88269 20.6003 5.01145C20.6073 5.01145 20.6143 5.01145 20.6213 5.01493C21.0372 5.12282 21.4358 5.26898 21.8133 5.44995C21.8343 5.46039 21.8552 5.46735 21.8762 5.47779C21.9391 5.50911 22.0021 5.54043 22.065 5.57175C22.1139 5.59611 22.1664 5.62047 22.2153 5.64831L22.2782 5.67963C22.8515 6.02765 23.3619 6.44178 23.8093 6.94987L23.8723 7.01252C24.0645 7.23524 24.2568 7.48929 24.4141 7.74334L25.4034 7.26656L25.4663 7.23524L29.0424 5.51955C28.1475 4.0579 26.9345 2.81898 25.4663 1.86543L25.4034 1.83411C23.5856 0.657836 21.3833 -0.0103455 19.0202 -0.0103455C16.6571 -0.0103455 14.5212 0.657836 12.7 1.76799L12.637 1.83063C9.53982 3.76905 7.52979 7.07516 7.52979 10.8546C7.52979 14.634 9.53982 17.9714 12.637 19.9098C12.637 19.9098 13.6892 20.5467 14.2346 20.7694L14.2975 20.8007C14.7764 21.0234 15.895 21.3401 15.895 21.3401C16.8843 21.6255 17.9365 21.7543 19.0237 21.7543C20.1109 21.7543 21.1945 21.5942 22.2153 21.3401C22.2153 21.3401 23.3339 20.9921 23.8128 20.7694L23.8758 20.7381C24.4176 20.5153 24.928 20.23 25.4069 19.9133L25.4698 19.882C26.938 18.9284 28.151 17.6895 29.0459 16.2278L25.4698 14.5122L25.4069 14.4808V14.4913Z" fill="#333333"/>
<path d="M25.4979 66.0142H24.0157V68.7322C24.0157 69.2403 24.2814 69.4943 24.8092 69.4943C25.04 69.4943 25.2672 69.4317 25.4979 69.3099V70.0894C25.2497 70.2251 24.9631 70.2913 24.6345 70.2913C24.159 70.2913 23.799 70.166 23.5543 69.9189C23.3096 69.6718 23.1872 69.3203 23.1872 68.8609V66.0142H22.2993V65.266H23.1872V63.947H24.0192V65.266H25.5014V66.0142H25.4979Z" fill="#333333"/>
<path d="M29.4061 65.1476C30.0074 65.1476 30.4898 65.3286 30.8569 65.694C31.2239 66.0594 31.4057 66.5397 31.4057 67.1417V70.1729H30.5737V67.3993C30.5737 66.9608 30.4444 66.6093 30.1822 66.3448C29.92 66.0803 29.5704 65.9481 29.1335 65.9481C28.6965 65.9481 28.312 66.0838 28.0393 66.3518C27.7667 66.6197 27.6303 66.9782 27.6303 67.4202V70.1729H26.7983V63.2405H27.6303V66.042C28.0288 65.4469 28.6231 65.1476 29.4061 65.1476Z" fill="#333333"/>
<path d="M33.4088 64.2846C33.248 64.2846 33.1151 64.2324 33.0068 64.128C32.8984 64.0236 32.8459 63.8913 32.8459 63.7347C32.8459 63.5781 32.8984 63.4424 33.0068 63.3415C33.1151 63.2406 33.248 63.1849 33.4088 63.1849C33.5696 63.1849 33.6954 63.2371 33.8003 63.3415C33.9052 63.4459 33.9576 63.5781 33.9576 63.7347C33.9576 63.8913 33.9052 64.0236 33.8003 64.128C33.6954 64.2324 33.5661 64.2846 33.4123 64.2846H33.4088ZM32.9963 70.1729V65.266H33.8282V70.1729H32.9963Z" fill="#333333"/>
<path d="M38.0756 65.1476C38.6768 65.1476 39.1593 65.3286 39.5263 65.694C39.8934 66.0594 40.0751 66.5397 40.0751 67.1417V70.1729H39.2432V67.3993C39.2432 66.9608 39.1138 66.6093 38.8516 66.3448C38.5895 66.0803 38.2399 65.9481 37.8029 65.9481C37.3659 65.9481 36.9814 66.0838 36.7088 66.3518C36.4361 66.6197 36.2998 66.9782 36.2998 67.4202V70.1729H35.4678V65.266H36.2998V66.0142C36.6983 65.4365 37.2925 65.1511 38.0756 65.1511V65.1476Z" fill="#333333"/>
<path d="M44.9026 70.1729L43.1337 68.1997L42.4975 68.8748V70.1729H41.6655V63.2405H42.4975V67.7577L44.8536 65.266H45.9408L43.728 67.5837L46.0072 70.1729H44.9061H44.9026Z" fill="#333333"/>
<path d="M52.3486 65.1476C53.0548 65.1476 53.6421 65.3947 54.114 65.8854C54.5859 66.3761 54.8236 66.9886 54.8236 67.7194C54.8236 68.4503 54.5859 69.0593 54.114 69.5535C53.6421 70.0442 53.0548 70.2912 52.3486 70.2912C51.9466 70.2912 51.5796 70.2042 51.2475 70.0268C50.9154 69.8493 50.6462 69.6057 50.4365 69.2925V72.0035H49.6045V65.2695H50.4365V66.1534C50.6462 65.8402 50.9189 65.5966 51.2475 65.4191C51.5796 65.2416 51.9431 65.1546 52.3486 65.1546V65.1476ZM52.1948 69.4908C52.7017 69.4908 53.1247 69.3203 53.4603 68.9827C53.7959 68.6452 53.9637 68.2241 53.9637 67.7194C53.9637 67.2148 53.7959 66.7937 53.4603 66.4562C53.1247 66.1186 52.7017 65.9481 52.1948 65.9481C51.6879 65.9481 51.272 66.1186 50.9399 66.4562C50.6078 66.7937 50.44 67.2148 50.44 67.7194C50.44 68.2241 50.6078 68.6452 50.9399 68.9827C51.272 69.3203 51.6914 69.4908 52.1948 69.4908Z" fill="#333333"/>
<path d="M58.4799 70.2912C57.9905 70.2912 57.5431 70.1799 57.1376 69.9537C56.7356 69.7309 56.421 69.4212 56.1902 69.028C55.963 68.6347 55.8477 68.1997 55.8477 67.7194C55.8477 67.2392 55.963 66.8042 56.1902 66.4109C56.4175 66.0177 56.7356 65.7079 57.1376 65.4852C57.5396 65.2625 57.987 65.1476 58.4799 65.1476C59.221 65.1476 59.8433 65.3947 60.3466 65.8854C60.85 66.3761 61.0982 66.9886 61.0982 67.7194C61.0982 68.4503 60.8465 69.0593 60.3466 69.5535C59.8433 70.0442 59.221 70.2912 58.4799 70.2912ZM58.4799 69.4908C58.9833 69.4908 59.4028 69.3203 59.7384 68.9827C60.074 68.6452 60.2418 68.2241 60.2418 67.7194C60.2418 67.2148 60.074 66.7937 59.7384 66.4562C59.4028 66.1186 58.9833 65.9481 58.4799 65.9481C57.9765 65.9481 57.5501 66.1186 57.2145 66.4562C56.8789 66.7937 56.7111 67.2148 56.7111 67.7194C56.7111 68.2241 56.8789 68.6452 57.2145 68.9827C57.5501 69.3203 57.9731 69.4908 58.4799 69.4908Z" fill="#333333"/>
<path d="M64.0453 70.2912C63.2483 70.2912 62.5806 70.0337 62.0422 69.5221L62.5037 68.9236C62.9057 69.3342 63.4161 69.5395 64.0278 69.5395C64.3599 69.5395 64.6361 69.4769 64.8493 69.3551C65.0625 69.2298 65.1709 69.0628 65.1709 68.8435C65.1709 68.753 65.1464 68.6695 65.101 68.5964C65.0555 68.5233 65.0031 68.4642 64.9402 68.4155C64.8808 68.3667 64.7864 68.3215 64.6675 68.2763C64.5452 68.231 64.4403 68.1962 64.3529 68.1719C64.262 68.1475 64.1362 68.1162 63.9719 68.0744C63.8216 68.0361 63.7027 68.0048 63.6118 67.9839C63.5244 67.9596 63.4091 67.9248 63.2692 67.8726C63.1294 67.8238 63.0175 67.7751 62.9302 67.7264C62.8428 67.6777 62.7484 67.6185 62.647 67.542C62.5456 67.4654 62.4652 67.3854 62.4058 67.2984C62.3464 67.2113 62.2974 67.1104 62.259 66.9886C62.2205 66.8668 62.1995 66.7346 62.1995 66.5919C62.1995 66.2856 62.2869 66.0212 62.4652 65.7984C62.6435 65.5757 62.8707 65.4121 63.1504 65.3077C63.43 65.2033 63.7447 65.1511 64.0907 65.1511C64.8039 65.1511 65.4051 65.3738 65.898 65.8228L65.4296 66.4283C65.066 66.0768 64.6221 65.9028 64.0977 65.9028C63.8006 65.9028 63.5489 65.9585 63.3531 66.0734C63.1574 66.1882 63.056 66.3448 63.056 66.5466C63.056 66.6406 63.0805 66.7241 63.1259 66.7972C63.1749 66.8703 63.2273 66.9295 63.2902 66.9782C63.3531 67.0269 63.444 67.0721 63.5699 67.1174C63.6957 67.1626 63.8006 67.1974 63.888 67.2218C63.9754 67.2461 64.1012 67.2775 64.2725 67.3192C64.4193 67.354 64.5382 67.3819 64.6291 67.4062C64.72 67.4306 64.8318 67.4654 64.9717 67.5106C65.1115 67.5559 65.2233 67.6046 65.3107 67.6498C65.3981 67.6951 65.4925 67.7542 65.5904 67.8308C65.6883 67.9074 65.7687 67.9874 65.8281 68.0709C65.8875 68.1545 65.933 68.2589 65.9714 68.3807C66.0099 68.5025 66.0309 68.6312 66.0309 68.7739C66.0309 69.2472 65.8421 69.6196 65.468 69.891C65.094 70.1625 64.6186 70.2982 64.0418 70.2982L64.0453 70.2912Z" fill="#333333"/>
<path d="M67.7366 64.2846C67.5758 64.2846 67.443 64.2324 67.3346 64.128C67.2263 64.0236 67.1738 63.8913 67.1738 63.7347C67.1738 63.5781 67.2263 63.4424 67.3346 63.3415C67.443 63.2406 67.5758 63.1849 67.7366 63.1849C67.8974 63.1849 68.0233 63.2371 68.1282 63.3415C68.233 63.4459 68.2855 63.5781 68.2855 63.7347C68.2855 63.8913 68.233 64.0236 68.1282 64.128C68.0233 64.2324 67.8939 64.2846 67.7401 64.2846H67.7366ZM67.3206 70.1729V65.266H68.1526V70.1729H67.3206Z" fill="#333333"/>
<path d="M72.6375 66.0142H71.1554V68.7322C71.1554 69.2403 71.421 69.4943 71.9489 69.4943C72.1796 69.4943 72.4068 69.4317 72.6375 69.3099V70.0894C72.3893 70.2251 72.0992 70.2913 71.7741 70.2913C71.2987 70.2913 70.9386 70.166 70.6939 69.9189C70.4492 69.6718 70.3269 69.3203 70.3269 68.8609V66.0142H69.439V65.266H70.3269V63.947H71.1589V65.266H72.641V66.0142H72.6375Z" fill="#333333"/>
<path d="M74.3575 64.2846C74.1967 64.2846 74.0638 64.2324 73.9555 64.128C73.8471 64.0236 73.7947 63.8913 73.7947 63.7347C73.7947 63.5781 73.8471 63.4424 73.9555 63.3415C74.0638 63.2406 74.1967 63.1849 74.3575 63.1849C74.5183 63.1849 74.6441 63.2371 74.749 63.3415C74.8539 63.4459 74.9063 63.5781 74.9063 63.7347C74.9063 63.8913 74.8539 64.0236 74.749 64.128C74.6441 64.2324 74.5148 64.2846 74.361 64.2846H74.3575ZM73.9415 70.1729V65.266H74.7735V70.1729H73.9415Z" fill="#333333"/>
<path d="M80.129 65.266H81.0589L78.8915 70.1729H78.0071L75.8433 65.266H76.7976L78.4651 69.1811L80.1255 65.266H80.129Z" fill="#333333"/>
<path d="M86.7044 67.7194C86.7044 67.7682 86.6974 67.89 86.68 68.0849H82.4362C82.5201 68.5164 82.7298 68.8644 83.0584 69.1289C83.387 69.3934 83.789 69.5256 84.2644 69.5256C84.6175 69.5256 84.9426 69.4525 85.2362 69.3029C85.5334 69.1533 85.7641 68.9618 85.9319 68.7287L86.5017 69.2159C86.2535 69.5465 85.9319 69.811 85.5369 70.0024C85.1419 70.1938 84.7084 70.2878 84.2365 70.2878C83.4639 70.2878 82.8242 70.0407 82.3103 69.5465C81.7965 69.0523 81.5413 68.4363 81.5413 67.6986C81.5413 67.2218 81.6531 66.7903 81.8803 66.4005C82.1041 66.0107 82.4152 65.7045 82.8137 65.4817C83.2122 65.259 83.6492 65.1476 84.1351 65.1476C84.621 65.1476 85.0545 65.259 85.446 65.4817C85.8375 65.7045 86.1486 66.0107 86.3723 66.404C86.5961 66.7972 86.7079 67.2357 86.7079 67.7194H86.7044ZM84.1211 65.9098C83.6946 65.9098 83.3241 66.042 83.013 66.3065C82.7018 66.571 82.5061 66.9121 82.4292 67.3332H85.8235C85.7431 66.9086 85.5508 66.5641 85.2397 66.303C84.9286 66.042 84.5581 65.9098 84.1246 65.9098H84.1211Z" fill="#333333"/>
<path d="M15.8637 67.0652H13.7942V69.1254H12.9867V67.0652H10.9067V66.2613H12.9867V64.1906H13.7942V66.2613H15.8637V67.0652Z" fill="#333333"/>
<path d="M98.0934 67.0652H96.0239V69.1254H95.2164V67.0652H93.1365V66.2613H95.2164V64.1906H96.0239V66.2613H98.0934V67.0652Z" fill="#333333"/>
</g>
<defs>
<clipPath id="clip0_27_3388">
<rect width="109" height="72" fill="white"/>
</clipPath>
</defs>
</svg>
