<svg width="227" height="50" viewBox="0 0 227 50" fill="none" xmlns="http://www.w3.org/2000/svg">
<g clip-path="url(#clip0_2_11)">
<path d="M151.825 5.22299V23.1815H146.358V5.8073C146.358 5.46148 145.984 5.25876 145.586 5.25876C145.188 5.25876 144.848 5.46148 144.743 5.8073L140.693 23.1815H135.636L131.562 5.8073C131.492 5.46148 131.129 5.25876 130.719 5.25876C130.345 5.25876 129.982 5.46148 129.982 5.8073V23.1815H124.515V5.22299C124.515 2.17028 127.313 0 130.649 0C133.985 0 136.35 1.88409 136.923 4.73408L138.176 10.7799L139.393 4.73408C139.967 1.88409 142.531 0 145.703 0C148.875 0 151.837 2.15836 151.837 5.22299H151.825Z" fill="#F6F6F6"/>
<path d="M155.091 0.345818H160.558V23.1815H155.091V0.345818Z" fill="#F6F6F6"/>
<path d="M174.335 18.8171L171.034 5.8073C170.929 5.46148 170.601 5.25876 170.191 5.25876C169.782 5.25876 169.419 5.46148 169.419 5.8073V23.1815H163.952V5.22299C163.952 2.17028 166.785 0 170.086 0C173.387 0 175.611 1.91987 176.396 4.73408L179.697 17.7439C179.767 18.0539 180.036 18.2566 180.469 18.2566C180.879 18.2566 181.148 18.0539 181.148 17.7439V0.345814H186.615V18.3759C186.615 21.4286 183.817 23.5273 180.551 23.5273C177.484 23.5273 175.12 21.7028 174.347 18.8171H174.335Z" fill="#F6F6F6"/>
<path d="M209.16 11.7458C209.16 18.0658 203.904 23.1815 197.361 23.1815H190.009V0.345818H197.361C203.904 0.345818 209.16 5.46149 209.16 11.7458ZM203.705 11.7458C203.705 8.00143 200.873 4.9845 197.372 4.9845H195.488V18.5547H197.372C200.884 18.5547 203.705 15.5378 203.705 11.7577V11.7458Z" fill="#F6F6F6"/>
<path d="M210.717 17.3742L215.634 15.824C216.102 17.398 217.39 18.4355 218.9 18.4355C220.41 18.4355 221.393 17.5411 221.393 16.3725C221.393 15.1324 220.246 14.4169 217.951 13.7968C213.667 12.6282 210.904 10.4698 210.904 6.96399C210.904 3.11233 214.381 0.0238495 218.759 0.0238495C222.634 0.0238495 225.806 2.45648 226.543 5.83115L221.65 7.38135C221.042 5.86692 219.895 4.91295 218.478 4.91295C217.366 4.91295 216.488 5.6642 216.488 6.6301C216.488 7.76294 217.296 8.41879 219.356 8.96733C224.273 10.2671 226.977 12.4374 226.977 16.1102C226.977 20.2957 223.57 23.4915 219.017 23.4915C214.697 23.4915 211.326 20.8085 210.694 17.3742H210.717Z" fill="#F6F6F6"/>
<path d="M0 0.345818H5.46664V23.1815H0V0.345818Z" fill="#F6F6F6"/>
<path d="M31.6526 11.7458C31.6526 5.25877 37.0842 0 43.7916 0C50.4991 0 55.9306 5.25877 55.9306 11.7458C55.9306 18.2328 50.4991 23.5273 43.7916 23.5273C37.0842 23.5273 31.6526 18.2685 31.6526 11.7458ZM50.4288 11.7458C50.4288 8.14453 47.4673 5.22299 43.7916 5.22299C40.116 5.22299 37.1544 8.14453 37.1544 11.7458C37.1544 15.347 40.116 18.3043 43.7916 18.3043C47.4673 18.3043 50.4288 15.3828 50.4288 11.7458Z" fill="#F6F6F6"/>
<path d="M68.7719 18.8171L65.4709 5.8073C65.3655 5.46148 65.0377 5.25876 64.628 5.25876C64.2183 5.25876 63.8555 5.46148 63.8555 5.8073V23.1815H58.3888V5.22299C58.3888 2.17028 61.2216 0 64.5227 0C67.8237 0 70.0479 1.91987 70.8321 4.73408L74.1332 17.7439C74.2034 18.0539 74.4727 18.2566 74.9058 18.2566C75.3155 18.2566 75.5847 18.0539 75.5847 17.7439V0.345814H81.0514V18.3759C81.0514 21.4286 78.2537 23.5273 74.9877 23.5273C71.9208 23.5273 69.5562 21.7028 68.7836 18.8171H68.7719Z" fill="#F6F6F6"/>
<path d="M84.4461 0.345818H89.9127V23.1815H84.4461V0.345818Z" fill="#F6F6F6"/>
<path d="M111.276 15.657L110.234 15.1443C110.07 15.4186 109.859 15.6928 109.66 15.9313L109.59 16.0029C109.344 16.2891 109.075 16.5514 108.783 16.7899C108.736 16.8376 108.677 16.8734 108.619 16.9211C108.513 17.0045 108.396 17.088 108.291 17.1715C108.256 17.1953 108.209 17.2311 108.174 17.2549C108.104 17.3026 108.045 17.3503 107.975 17.3861L107.905 17.4219C107.905 17.4219 107.846 17.4577 107.811 17.4696C106.839 18.0181 105.716 18.3401 104.51 18.3401C102.543 18.3401 100.787 17.4934 99.57 16.146C99.57 16.146 99.5466 16.1221 99.5349 16.1102L99.4647 16.0386C99.4647 16.0386 99.4413 16.0029 99.4296 15.9909C98.458 14.8462 97.861 13.3794 97.861 11.7577C97.861 10.9587 98.0131 10.2075 98.2707 9.49201C98.2824 9.44431 98.3058 9.40854 98.3175 9.36084C98.3643 9.24159 98.4229 9.12235 98.4697 9.0031C98.5048 8.91963 98.5399 8.84808 98.5867 8.76461C98.6336 8.68114 98.6804 8.58574 98.7272 8.50227C98.7857 8.39494 98.856 8.28762 98.9145 8.19222C98.9496 8.1326 98.9847 8.07298 99.0316 8.02528C99.1369 7.88218 99.2423 7.73909 99.3476 7.60792C99.3476 7.59599 99.371 7.58407 99.3827 7.57214C99.4061 7.53637 99.4296 7.51252 99.453 7.47675L99.5232 7.4052C99.5232 7.4052 99.6051 7.32173 99.6403 7.28595C100.858 5.99809 102.578 5.18722 104.498 5.18722C105.083 5.18722 105.645 5.27069 106.172 5.40186C106.172 5.40186 106.184 5.40186 106.196 5.40186C106.64 5.52111 107.062 5.67613 107.46 5.86692C107.483 5.86692 107.507 5.89077 107.53 5.90269C107.6 5.93847 107.659 5.97424 107.729 6.01002C107.788 6.03387 107.834 6.06964 107.893 6.09349L107.963 6.12926C108.572 6.51085 109.11 6.95206 109.579 7.5006L109.649 7.57214C109.848 7.81064 110.058 8.0849 110.222 8.35917L111.264 7.84641L111.334 7.81064L115.115 5.95039C114.167 4.37634 112.891 3.02886 111.334 2.00334L111.264 1.96756C109.344 0.691629 107.015 -0.0238495 104.522 -0.0238495C102.028 -0.0238495 99.769 0.691629 97.8493 1.89602L97.779 1.96756C94.5131 4.0663 92.3826 7.63177 92.3826 11.7219C92.3826 15.8121 94.5014 19.4133 97.779 21.512C97.779 21.512 98.8911 22.2037 99.4647 22.4422L99.5349 22.4779C100.038 22.7164 101.221 23.0622 101.221 23.0622C102.262 23.3723 103.374 23.5035 104.522 23.5035C105.669 23.5035 106.816 23.3365 107.893 23.0622C107.893 23.0622 109.075 22.6807 109.579 22.4422L109.649 22.4064C110.222 22.1679 110.761 21.8579 111.264 21.512L111.334 21.4763C112.88 20.4508 114.167 19.1033 115.115 17.5292L111.334 15.669L111.264 15.6332L111.276 15.657Z" fill="#F6F6F6"/>
<path d="M111.276 15.657L110.234 15.1443C110.07 15.4186 109.859 15.6928 109.66 15.9313L109.59 16.0029C109.344 16.2891 109.075 16.5514 108.783 16.7899C108.736 16.8376 108.677 16.8734 108.619 16.9211C108.513 17.0045 108.396 17.088 108.291 17.1715C108.256 17.1953 108.209 17.2311 108.174 17.2549C108.104 17.3026 108.045 17.3503 107.975 17.3861L107.905 17.4219C107.905 17.4219 107.846 17.4577 107.811 17.4696C106.839 18.0181 105.716 18.3401 104.51 18.3401C102.543 18.3401 100.787 17.4934 99.57 16.146C99.57 16.146 99.5466 16.1221 99.5349 16.1102L99.4647 16.0386C99.4647 16.0386 99.4413 16.0029 99.4296 15.9909C98.458 14.8462 97.861 13.3794 97.861 11.7577C97.861 10.9587 98.0131 10.2075 98.2707 9.49201C98.2824 9.44431 98.3058 9.40854 98.3175 9.36084C98.3643 9.24159 98.4229 9.12235 98.4697 9.0031C98.5048 8.91963 98.5399 8.84808 98.5867 8.76461C98.6336 8.68114 98.6804 8.58574 98.7272 8.50227C98.7857 8.39494 98.856 8.28762 98.9145 8.19222C98.9496 8.1326 98.9847 8.07298 99.0316 8.02528C99.1369 7.88218 99.2423 7.73909 99.3476 7.60792C99.3476 7.59599 99.371 7.58407 99.3827 7.57214C99.4061 7.53637 99.4296 7.51252 99.453 7.47675L99.5232 7.4052C99.5232 7.4052 99.6051 7.32173 99.6403 7.28595C100.858 5.99809 102.578 5.18722 104.498 5.18722C105.083 5.18722 105.645 5.27069 106.172 5.40186C106.172 5.40186 106.184 5.40186 106.196 5.40186C106.64 5.52111 107.062 5.67613 107.46 5.86692C107.483 5.86692 107.507 5.89077 107.53 5.90269C107.6 5.93847 107.659 5.97424 107.729 6.01002C107.788 6.03387 107.834 6.06964 107.893 6.09349L107.963 6.12926C108.572 6.51085 109.11 6.95206 109.579 7.5006L109.649 7.57214C109.848 7.81064 110.058 8.0849 110.222 8.35917L111.264 7.84641L111.334 7.81064L115.115 5.95039C114.167 4.37634 112.891 3.02886 111.334 2.00334L111.264 1.96756C109.344 0.691629 107.015 -0.0238495 104.522 -0.0238495C102.028 -0.0238495 99.769 0.691629 97.8493 1.89602L97.779 1.96756C94.5131 4.0663 92.3826 7.63177 92.3826 11.7219C92.3826 15.8121 94.5014 19.4133 97.779 21.512C97.779 21.512 98.8911 22.2037 99.4647 22.4422L99.5349 22.4779C100.038 22.7164 101.221 23.0622 101.221 23.0622C102.262 23.3723 103.374 23.5035 104.522 23.5035C105.669 23.5035 106.816 23.3365 107.893 23.0622C107.893 23.0622 109.075 22.6807 109.579 22.4422L109.649 22.4064C110.222 22.1679 110.761 21.8579 111.264 21.512L111.334 21.4763C112.88 20.4508 114.167 19.1033 115.115 17.5292L111.334 15.669L111.264 15.6332L111.276 15.657Z" fill="#F6F6F6"/>
<path d="M26.8298 15.657L25.788 15.1443C25.6241 15.4186 25.4134 15.6928 25.2144 15.9313L25.1442 16.0029C24.8984 16.2891 24.6291 16.5514 24.3365 16.7899C24.2897 16.8376 24.2311 16.8734 24.1726 16.9211C24.0672 17.0045 23.9502 17.088 23.8448 17.1715C23.8097 17.1953 23.7629 17.2311 23.7278 17.2549C23.6575 17.3026 23.599 17.3503 23.5288 17.3861L23.4585 17.4219C23.4585 17.4219 23.4 17.4577 23.3649 17.4696C22.3933 18.0181 21.2695 18.3401 20.0638 18.3401C18.0973 18.3401 16.3414 17.4934 15.124 16.146C15.124 16.146 15.1006 16.1221 15.0888 16.1102L15.0186 16.0386C15.0186 16.0386 14.9952 16.0029 14.9835 15.9909C14.0119 14.8462 13.4149 13.3794 13.4149 11.7577C13.4149 10.9587 13.5671 10.2075 13.8246 9.49201C13.8363 9.44431 13.8597 9.40854 13.8714 9.36084C13.9183 9.24159 13.9768 9.12235 14.0236 9.0031C14.0587 8.91963 14.0939 8.84808 14.1407 8.76461C14.1875 8.68114 14.2343 8.58574 14.2811 8.50227C14.3397 8.39494 14.4099 8.28762 14.4684 8.19222C14.5036 8.1326 14.5387 8.07298 14.5855 8.02528C14.6908 7.88218 14.7962 7.73909 14.9016 7.60792C14.9016 7.59599 14.925 7.58407 14.9367 7.57214C14.9601 7.53637 14.9835 7.51252 15.0069 7.47675L15.0771 7.4052C15.0771 7.4052 15.1591 7.32173 15.1942 7.28595C16.4116 5.99809 18.1324 5.18722 20.0521 5.18722C20.6374 5.18722 21.1993 5.27069 21.7261 5.40186C21.7261 5.40186 21.7378 5.40186 21.7495 5.40186C22.1943 5.52111 22.6157 5.67613 23.0137 5.86692C23.0371 5.86692 23.0605 5.89077 23.0839 5.90269C23.1542 5.93847 23.2127 5.97424 23.2829 6.01002C23.3415 6.03387 23.3883 6.06964 23.4468 6.09349L23.5171 6.12926C24.1258 6.51085 24.6642 6.95206 25.1325 7.5006L25.2027 7.57214C25.4017 7.81064 25.6124 8.0849 25.7763 8.35917L26.8181 7.84641L26.8884 7.81064L30.6693 5.95039C29.7212 4.37634 28.4452 3.02886 26.8884 2.00334L26.8181 1.96756C24.8984 0.691629 22.5689 -0.0238495 20.0755 -0.0238495C17.5822 -0.0238495 15.323 0.691629 13.4032 1.89602L13.333 1.96756C10.067 4.0663 7.93657 7.63177 7.93657 11.7219C7.93657 15.8121 10.0553 19.4133 13.333 21.512C13.333 21.512 14.445 22.2037 15.0186 22.4422L15.0888 22.4779C15.5922 22.7164 16.7745 23.0622 16.7745 23.0622C17.8163 23.3723 18.9284 23.5035 20.0755 23.5035C21.2227 23.5035 22.3699 23.3365 23.4468 23.0622C23.4468 23.0622 24.6291 22.6807 25.1325 22.4422L25.2027 22.4064C25.7763 22.1679 26.3148 21.8579 26.8181 21.512L26.8884 21.4763C28.4335 20.4508 29.7212 19.1033 30.6693 17.5292L26.8884 15.669L26.8181 15.6332L26.8298 15.657Z" fill="#F6F6F6"/>
<path d="M62.5561 39.244H59.9574V44.1211C59.9574 45.0274 60.4256 45.4925 61.3504 45.4925C61.7484 45.4925 62.1581 45.3852 62.5561 45.1586V46.5657C62.123 46.8042 61.6079 46.9234 61.0344 46.9234C60.2032 46.9234 59.5711 46.6969 59.138 46.2557C58.7049 45.8144 58.4942 45.1824 58.4942 44.3596V39.244H56.9373V37.8965H58.4942V35.5235H59.9574V37.8965H62.5561V39.244Z" fill="#F6F6F6"/>
<path d="M69.4275 37.6938C70.481 37.6938 71.3355 38.0157 71.9793 38.6716C72.6232 39.3274 72.9509 40.186 72.9509 41.2712V46.7207H71.4877V41.7362C71.4877 40.9492 71.2536 40.3172 70.797 39.8402C70.3405 39.3632 69.7201 39.1247 68.9592 39.1247C68.1983 39.1247 67.5194 39.3632 67.0395 39.8521C66.5595 40.341 66.3137 40.973 66.3137 41.772V46.7207H64.8505V34.2595H66.3137V39.2917C67.016 38.2185 68.0579 37.6818 69.4275 37.6818V37.6938Z" fill="#F6F6F6"/>
<path d="M76.451 36.1316C76.17 36.1316 75.9359 36.0362 75.7486 35.8455C75.5613 35.6547 75.4677 35.4162 75.4677 35.1419C75.4677 34.8676 75.5613 34.6172 75.7486 34.4383C75.9359 34.2595 76.17 34.1641 76.451 34.1641C76.7319 34.1641 76.9543 34.2595 77.1416 34.4383C77.3289 34.6172 77.4108 34.8557 77.4108 35.1419C77.4108 35.4281 77.3172 35.6547 77.1299 35.8455C76.9426 36.0362 76.7202 36.1316 76.451 36.1316ZM75.7252 46.7207V37.9084H77.1884V46.7207H75.7252Z" fill="#F6F6F6"/>
<path d="M84.6451 37.6938C85.6986 37.6938 86.5531 38.0157 87.1969 38.6716C87.8408 39.3274 88.1685 40.186 88.1685 41.2712V46.7207H86.7053V41.7362C86.7053 40.9492 86.4712 40.3172 86.0147 39.8402C85.5581 39.3632 84.9377 39.1247 84.1768 39.1247C83.416 39.1247 82.737 39.3632 82.2571 39.8521C81.7771 40.341 81.5313 40.973 81.5313 41.772V46.7207H80.0681V37.9084H81.5313V39.2559C82.2337 38.2185 83.2755 37.7057 84.6451 37.7057V37.6938Z" fill="#F6F6F6"/>
<path d="M96.6436 46.7207L93.5298 43.1791L92.4061 44.3954V46.7207H90.9428V34.2595H92.4061V42.3802L96.5382 37.9084H98.4463L94.5599 42.0701L98.5633 46.7207H96.6319H96.6436Z" fill="#F6F6F6"/>
<path d="M109.719 37.6938C110.96 37.6938 111.99 38.135 112.821 39.0174C113.652 39.8998 114.062 40.9969 114.062 42.3086C114.062 43.6203 113.652 44.7174 112.821 45.5998C111.99 46.4822 110.96 46.9234 109.719 46.9234C109.017 46.9234 108.373 46.7684 107.788 46.4464C107.202 46.1245 106.734 45.6833 106.359 45.1228V50H104.896V37.8965H106.359V39.4825C106.734 38.922 107.202 38.4808 107.788 38.1588C108.373 37.8369 109.017 37.6818 109.719 37.6818V37.6938ZM109.45 45.4925C110.339 45.4925 111.077 45.1944 111.674 44.5862C112.271 43.978 112.564 43.2149 112.564 42.3086C112.564 41.4023 112.271 40.6391 111.674 40.031C111.077 39.4228 110.339 39.1247 109.45 39.1247C108.56 39.1247 107.834 39.4228 107.249 40.031C106.664 40.6391 106.371 41.4023 106.371 42.3086C106.371 43.2149 106.664 43.978 107.249 44.5862C107.834 45.1944 108.572 45.4925 109.45 45.4925Z" fill="#F6F6F6"/>
<path d="M120.488 46.9234C119.622 46.9234 118.838 46.7207 118.136 46.3153C117.433 45.9098 116.871 45.3613 116.473 44.6458C116.075 43.9423 115.876 43.1553 115.876 42.2967C115.876 41.4381 116.075 40.6511 116.473 39.9475C116.871 39.244 117.433 38.6835 118.136 38.2781C118.838 37.8726 119.622 37.6699 120.488 37.6699C121.788 37.6699 122.888 38.1111 123.766 38.9936C124.644 39.876 125.089 40.973 125.089 42.2848C125.089 43.5965 124.644 44.6935 123.766 45.576C122.888 46.4584 121.788 46.8996 120.488 46.8996V46.9234ZM120.488 45.4925C121.378 45.4925 122.104 45.1944 122.701 44.5862C123.286 43.9781 123.579 43.2149 123.579 42.3086C123.579 41.4023 123.286 40.6392 122.701 40.031C122.116 39.4228 121.378 39.1247 120.488 39.1247C119.599 39.1247 118.861 39.4228 118.264 40.031C117.667 40.6392 117.375 41.4023 117.375 42.3086C117.375 43.2149 117.667 43.9781 118.264 44.5862C118.861 45.1944 119.599 45.4925 120.488 45.4925Z" fill="#F6F6F6"/>
<path d="M130.263 46.9234C128.87 46.9234 127.688 46.4584 126.751 45.5402L127.559 44.467C128.261 45.2063 129.162 45.576 130.239 45.576C130.825 45.576 131.305 45.4686 131.679 45.2421C132.054 45.0155 132.241 44.7174 132.241 44.3239C132.241 44.1569 132.206 44.0138 132.124 43.8827C132.042 43.7515 131.948 43.6442 131.843 43.5607C131.738 43.4772 131.574 43.3937 131.363 43.3103C131.152 43.2268 130.965 43.1672 130.813 43.1195C130.649 43.0837 130.438 43.0241 130.146 42.9525C129.877 42.881 129.666 42.8333 129.514 42.7856C129.361 42.7498 129.162 42.6783 128.917 42.5829C128.671 42.4875 128.472 42.404 128.32 42.3205C128.167 42.2371 128.004 42.1297 127.828 41.9866C127.652 41.8435 127.512 41.7004 127.407 41.5454C127.301 41.3904 127.219 41.1996 127.149 40.985C127.079 40.7703 127.044 40.5318 127.044 40.2695C127.044 39.721 127.196 39.244 127.512 38.8385C127.828 38.4331 128.226 38.1469 128.718 37.9561C129.209 37.7653 129.759 37.6699 130.368 37.6699C131.621 37.6699 132.674 38.0754 133.54 38.8743L132.721 39.9594C132.089 39.3274 131.305 39.0174 130.38 39.0174C129.853 39.0174 129.42 39.1128 129.069 39.3155C128.718 39.5182 128.542 39.8044 128.542 40.1741C128.542 40.341 128.589 40.4961 128.671 40.6272C128.753 40.7584 128.846 40.8657 128.952 40.9492C129.057 41.0327 129.221 41.1161 129.443 41.1996C129.666 41.2831 129.853 41.3427 130.005 41.3904C130.157 41.4262 130.38 41.4858 130.684 41.5574C130.942 41.617 131.152 41.6766 131.305 41.7124C131.468 41.7601 131.667 41.8197 131.902 41.9032C132.136 41.9866 132.346 42.0701 132.499 42.1536C132.651 42.2371 132.815 42.3444 132.99 42.4755C133.166 42.6067 133.306 42.7498 133.4 42.9048C133.494 43.0599 133.587 43.2387 133.657 43.4534C133.728 43.668 133.763 43.9065 133.763 44.1569C133.763 45.0036 133.435 45.6714 132.78 46.1603C132.124 46.6492 131.293 46.8877 130.275 46.8877L130.263 46.9234Z" fill="#F6F6F6"/>
<path d="M136.748 36.1316C136.467 36.1316 136.233 36.0362 136.045 35.8455C135.858 35.6547 135.765 35.4162 135.765 35.1419C135.765 34.8676 135.858 34.6172 136.045 34.4383C136.233 34.2595 136.467 34.1641 136.748 34.1641C137.029 34.1641 137.251 34.2595 137.438 34.4383C137.626 34.6172 137.708 34.8557 137.708 35.1419C137.708 35.4281 137.614 35.6547 137.427 35.8455C137.239 36.0362 137.017 36.1316 136.748 36.1316ZM136.022 46.7207V37.9084H137.485V46.7207H136.022Z" fill="#F6F6F6"/>
<path d="M145.352 39.244H142.753V44.1211C142.753 45.0274 143.221 45.4925 144.146 45.4925C144.544 45.4925 144.954 45.3852 145.352 45.1586V46.5657C144.919 46.8042 144.403 46.9234 143.83 46.9234C142.999 46.9234 142.367 46.6969 141.934 46.2557C141.5 45.8144 141.29 45.1824 141.29 44.3596V39.244H139.733V37.8965H141.29V35.5235H142.753V37.8965H145.352V39.244Z" fill="#F6F6F6"/>
<path d="M148.372 36.1316C148.091 36.1316 147.857 36.0362 147.669 35.8455C147.482 35.6547 147.388 35.4162 147.388 35.1419C147.388 34.8676 147.482 34.6172 147.669 34.4383C147.857 34.2595 148.091 34.1641 148.372 34.1641C148.653 34.1641 148.875 34.2595 149.062 34.4383C149.25 34.6172 149.332 34.8557 149.332 35.1419C149.332 35.4281 149.238 35.6547 149.051 35.8455C148.863 36.0362 148.641 36.1316 148.372 36.1316ZM147.646 46.7207V37.9084H149.109V46.7207H147.646Z" fill="#F6F6F6"/>
<path d="M158.509 37.8965H160.148L156.343 46.7088H154.798L151.006 37.8965H152.68L155.606 44.932L158.521 37.8965H158.509Z" fill="#F6F6F6"/>
<path d="M170.063 42.3086C170.063 42.3921 170.051 42.6067 170.016 42.9645H162.559C162.711 43.7396 163.074 44.3716 163.648 44.8485C164.221 45.3255 164.936 45.564 165.767 45.564C166.387 45.564 166.961 45.4329 167.476 45.1586C167.991 44.8962 168.4 44.5504 168.693 44.1211L169.7 45.0036C169.267 45.5998 168.693 46.0649 168.002 46.4107C167.312 46.7565 166.551 46.9234 165.72 46.9234C164.362 46.9234 163.238 46.4822 162.337 45.5879C161.435 44.6935 160.991 43.5965 160.991 42.2728C160.991 41.4143 161.19 40.6392 161.588 39.9356C161.986 39.232 162.524 38.6835 163.227 38.2781C163.929 37.8726 164.701 37.6818 165.544 37.6818C166.387 37.6818 167.16 37.8846 167.85 38.2781C168.541 38.6716 169.079 39.232 169.477 39.9356C169.875 40.6392 170.063 41.4262 170.063 42.2967V42.3086ZM165.521 39.0532C164.772 39.0532 164.116 39.2917 163.578 39.7686C163.028 40.2456 162.688 40.8538 162.548 41.617H168.506C168.365 40.8538 168.026 40.2337 167.476 39.7567C166.926 39.2917 166.282 39.0532 165.521 39.0532Z" fill="#F6F6F6"/>
<path d="M45.6412 43.358H42.0123V47.0546H40.5959V43.358H36.9437V41.9151H40.5959V38.1946H42.0123V41.9151H45.6412V43.358Z" fill="#F6F6F6"/>
<path d="M190.056 43.358H186.428V47.0546H185.011V43.358H181.359V41.9151H185.011V38.1946H186.428V41.9151H190.056V43.358Z" fill="#F6F6F6"/>
</g>
<defs>
<clipPath id="clip0_2_11">
<rect width="227" height="50" fill="white"/>
</clipPath>
</defs>
</svg>
