<svg width="64" height="64" viewBox="0 0 64 64" fill="none" xmlns="http://www.w3.org/2000/svg">
<path d="M39.254 23.44L27.814 34.9067L23.414 30.5067C23.1749 30.2275 22.8808 30.0008 22.5499 29.8407C22.2191 29.6807 21.8587 29.5907 21.4915 29.5765C21.1242 29.5623 20.758 29.6242 20.4158 29.7583C20.0736 29.8924 19.7628 30.0957 19.5029 30.3556C19.243 30.6155 19.0397 30.9263 18.9056 31.2685C18.7716 31.6107 18.7097 31.9769 18.7239 32.3441C18.7381 32.7114 18.828 33.0717 18.9881 33.4026C19.1481 33.7334 19.3748 34.0276 19.654 34.2667L25.9207 40.56C26.1698 40.8071 26.4653 41.0027 26.7902 41.1354C27.1151 41.2681 27.463 41.3354 27.814 41.3333C28.5136 41.3304 29.184 41.0526 29.6807 40.56L43.014 27.2267C43.2639 26.9788 43.4623 26.6838 43.5977 26.3589C43.7331 26.0339 43.8028 25.6854 43.8028 25.3333C43.8028 24.9813 43.7331 24.6327 43.5977 24.3078C43.4623 23.9828 43.2639 23.6879 43.014 23.44C42.5144 22.9433 41.8385 22.6645 41.134 22.6645C40.4295 22.6645 39.7536 22.9433 39.254 23.44ZM32.0007 5.33332C26.7265 5.33332 21.5708 6.89729 17.1855 9.82746C12.8001 12.7576 9.38221 16.9224 7.36388 21.7951C5.34554 26.6678 4.81745 32.0296 5.84639 37.2024C6.87533 42.3752 9.41508 47.1268 13.1445 50.8562C16.8739 54.5856 21.6254 57.1253 26.7983 58.1543C31.9711 59.1832 37.3329 58.6551 42.2056 56.6368C47.0783 54.6184 51.243 51.2005 54.1732 46.8152C57.1034 42.4299 58.6673 37.2742 58.6673 32C58.6673 28.4981 57.9776 25.0304 56.6374 21.7951C55.2973 18.5597 53.3331 15.62 50.8568 13.1438C48.3806 10.6676 45.4409 8.70333 42.2056 7.3632C38.9702 6.02307 35.5026 5.33332 32.0007 5.33332ZM32.0007 53.3333C27.7813 53.3333 23.6567 52.0821 20.1485 49.738C16.6402 47.3939 13.9059 44.0621 12.2912 40.1639C10.6766 36.2657 10.2541 31.9763 11.0772 27.8381C11.9004 23.6998 13.9322 19.8986 16.9157 16.915C19.8992 13.9315 23.7005 11.8997 27.8387 11.0766C31.977 10.2534 36.2664 10.6759 40.1646 12.2906C44.0627 13.9052 47.3945 16.6396 49.7387 20.1478C52.0828 23.6561 53.334 27.7807 53.334 32C53.334 37.6579 51.0864 43.0842 47.0856 47.0849C43.0848 51.0857 37.6586 53.3333 32.0007 53.3333Z" fill="#06826B"/>
</svg>
